{"title":"Geordie Shore S12E03 1080P WEB-DL AAC2 0 H 264","uid":14102556,"size":1594405088,"categoryP":"video","categoryS":"hd___tv_shows","magnet":"?xt=urn:btih:de3a3914259434a5b45ef97739654bdc01807036&amp;dn=Geordie+Shore+S12E03+1080P+WEB-DL+AAC2+0+H+264&amp;tr=udp%3A%2F%2Ftracker.leechers-paradise.org%3A6969&amp;tr=udp%3A%2F%2Fzer0day.ch%3A1337&amp;tr=udp%3A%2F%2Fopen.demonii.com%3A1337&amp;tr=udp%3A%2F%2Ftracker.coppersurfer.tk%3A6969&amp;tr=udp%3A%2F%2Fexodus.desync.com%3A6969","seeders":3,"leechers":1,"uploader":"jmanwf","files":1,"time":1459332632,"description":"Description\r\nCharlotte gets the girls to go hard on Gaz, Scott drops the girlfriend bomb on Chantelle and Holly has a big bust up with Charlotte when she sees her kissing Chloe.\r\n\r\n\r\nVideo\r\nID : 2\r\nFormat : AVC\r\nFormat/Info : Advanced Video Codec\r\nFormat profile :   \r\nFormat settings, CABAC : Yes\r\nFormat settings, ReFrames : 4 frames\r\nCodec ID : avc1\r\nCodec ID/Info : Advanced Video Coding\r\nDuration : 42mn 22s\r\nBit rate : 4 887 Kbps\r\nWidth : 1 920 pixels\r\nHeight : 1 080 pixels\r\nDisplay aspect ratio : 16:9\r\nFrame rate mode : Constant\r\nFrame rate : 25.000 fps\r\nColor space : YUV\r\nChroma subsampling : 4:2:0\r\nBit depth : 8 bits\r\nScan type : Progressive\r\nBits/(Pixel*Frame) : 0.094\r\nStream size : 1.45 GiB (97%)\r\nLanguage : English\r\nEncoded date : UTC 2016-03-30 00:35:48\r\nTagged date : UTC 2016-03-30 00:42:46\r\nColor range : Limited\r\nColor primaries : BT.709\r\nTransfer characteristics : BT.709\r\nMatrix coefficients : BT.709\r\n\r\nAudio\r\nID : 1\r\nFormat : AAC\r\nFormat/Info : Advanced Audio Codec\r\nFormat profile : LC\r\nCodec ID : 40\r\nDuration : 42mn 22s\r\nBit rate mode : Variable\r\nBit rate : 126 Kbps\r\nMaximum bit rate : 194 Kbps\r\nChannel(s) : 2 channels\r\nChannel positions : Front: L R\r\nSampling rate : 48.0 KHz\r\nFrame rate : 46.875 fps (1024 spf)\r\nCompression mode : Lossy\r\nStream size : 38.1 MiB (3%)\r\nLanguage : English\r\nDefault : Yes\r\nAlternate group : 1\r\nEncoded date : UTC 2016-03-30 00:35:47\r\nTagged date : UTC 2016-03-30 00:42:46\r\n\r\nText\r\nID : 3-CC1\r\nFormat : EIA-608\r\nMuxing mode : Final Cut\r\nCodec ID : c608\r\nDuration : 41mn 53s\r\nBit rate mode : Constant\r\nStream size : 0.00 Byte (0%)\r\nLanguage : English\r\nForced : No\r\nEncoded date : UTC 2016-03-30 00:35:48\r\nTagged date : UTC 2016-03-30 00:36:10","torrent":{"xt":"urn:btih:de3a3914259434a5b45ef97739654bdc01807036","amp;dn":"Geordie+Shore+S12E03+1080P+WEB-DL+AAC2+0+H+264","amp;tr":["udp%3A%2F%2Ftracker.leechers-paradise.org%3A6969","udp%3A%2F%2Fzer0day.ch%3A1337","udp%3A%2F%2Fopen.demonii.com%3A1337","udp%3A%2F%2Ftracker.coppersurfer.tk%3A6969","udp%3A%2F%2Fexodus.desync.com%3A6969"],"infoHash":"de3a3914259434a5b45ef97739654bdc01807036","infoHashBuffer":{"type":"Buffer","data":[222,58,57,20,37,148,52,165,180,94,249,119,57,101,75,220,1,128,112,54]},"announce":[],"urlList":[]}}